<svg width="15" height="14" fill="none" xmlns="http://www.w3.org/2000/svg"><path d="M4.675 11.2c-.74 0-1.338.63-1.338 1.4 0 .77.599 1.4 1.338 1.4.74 0 1.344-.63 1.344-1.4 0-.77-.605-1.4-1.344-1.4zM.642 0v1.4h1.344l2.42 5.313L3.5 8.428a1.397 1.397 0 00-.168.672c0 .77.605 1.4 1.344 1.4h8.066V9.1H4.957a.17.17 0 01-.168-.175l.02-.084.605-1.141h5.008a1.33 1.33 0 001.176-.721l2.406-4.543a.706.706 0 00.081-.336c0-.385-.302-.7-.672-.7H3.472L2.84 0H.642zm10.755 11.2c-.74 0-1.338.63-1.338 1.4 0 .77.598 1.4 1.338 1.4.739 0 1.344-.63 1.344-1.4 0-.77-.605-1.4-1.345-1.4z" fill="#fff"/></svg>