<svg width="20" height="19" fill="none" xmlns="http://www.w3.org/2000/svg"><path d="M14.435 0c-1.671 0-3.275.81-4.321 2.09C9.067.81 7.464 0 5.793 0 2.835 0 .51 2.42.51 5.5c0 3.78 3.265 6.86 8.21 11.54l1.393 1.31 1.392-1.32c4.945-4.67 8.21-7.75 8.21-11.53 0-3.08-2.324-5.5-5.281-5.5zM10.21 15.55l-.096.1-.096-.1C5.447 11.24 2.432 8.39 2.432 5.5c0-2 1.44-3.5 3.36-3.5 1.48 0 2.92.99 3.429 2.36h1.795c.5-1.37 1.94-2.36 3.419-2.36 1.92 0 3.36 1.5 3.36 3.5 0 2.89-3.015 5.74-7.585 10.05z" fill="#fff"/></svg>