<svg width="20" height="19" fill="none" xmlns="http://www.w3.org/2000/svg"><path d="M14.237 0c-1.68 0-3.293.81-4.345 2.09C8.839.81 7.226 0 5.546 0 2.57 0 .234 2.42.234 5.5c0 3.78 3.284 6.86 8.257 11.54l1.4 1.31 1.4-1.32c4.974-4.67 8.258-7.75 8.258-11.53 0-3.08-2.337-5.5-5.312-5.5zM9.988 15.55l-.096.1-.097-.1c-4.597-4.31-7.63-7.16-7.63-10.05 0-2 1.45-3.5 3.38-3.5 1.488 0 2.937.99 3.448 2.36H10.8C11.302 2.99 12.75 2 14.237 2c1.932 0 3.38 1.5 3.38 3.5 0 2.89-3.032 5.74-7.629 10.05z" fill="#58585A"/></svg>