<svg width="24" height="24" fill="none" xmlns="http://www.w3.org/2000/svg"><path d="M4.54 10.4C3.689 10.4 3 11.115 3 12c0 .885.688 1.6 1.54 1.6.853 0 1.541-.715 1.541-1.6 0-.885-.688-1.6-1.54-1.6zm0-6.4C3.689 4 3 4.715 3 5.6c0 .885.688 1.6 1.54 1.6.853 0 1.541-.715 1.541-1.6 0-.885-.688-1.6-1.54-1.6zm0 12.8c-.852 0-1.54.725-1.54 1.6 0 .875.698 1.6 1.54 1.6.843 0 1.541-.725 1.541-1.6 0-.875-.688-1.6-1.54-1.6zm3.082 2.667H22v-2.134H7.622v2.134zm0-6.4H22v-2.134H7.622v2.134zm0-8.534v2.134H22V4.533H7.622z" fill="#fff"/></svg>