<svg width="25" height="24" fill="none" xmlns="http://www.w3.org/2000/svg"><path d="M8.942 18c0 1.1-.9 2-2.002 2-1.101 0-2.003-.9-2.003-2s.902-2 2.003-2 2.002.9 2.002 2zM6.94 10c-1.101 0-2.003.9-2.003 2s.902 2 2.003 2 2.002-.9 2.002-2-.9-2-2.002-2zm0-6c-1.101 0-2.003.9-2.003 2S5.84 8 6.94 8s2.002-.9 2.002-2-.9-2-2.002-2zm6.007 4c1.102 0 2.003-.9 2.003-2s-.901-2-2.003-2c-1.101 0-2.002.9-2.002 2s.9 2 2.002 2zm0 2c-1.101 0-2.002.9-2.002 2s.9 2 2.002 2c1.102 0 2.003-.9 2.003-2s-.901-2-2.003-2zm0 6c-1.101 0-2.002.9-2.002 2s.9 2 2.002 2c1.102 0 2.003-.9 2.003-2s-.901-2-2.003-2z" fill="#fff"/><path d="M14.95 18c0 1.1-.9 2-2.002 2-1.102 0-2.003-.9-2.003-2s.901-2 2.003-2c1.101 0 2.002.9 2.002 2zm-2.002-8c-1.102 0-2.003.9-2.003 2s.901 2 2.003 2c1.101 0 2.002-.9 2.002-2s-.9-2-2.002-2zm0-6c-1.102 0-2.003.9-2.003 2s.901 2 2.003 2c1.101 0 2.002-.9 2.002-2s-.9-2-2.002-2zm6.007 4c1.101 0 2.002-.9 2.002-2s-.9-2-2.002-2c-1.101 0-2.002.9-2.002 2s.9 2 2.002 2zm0 2c-1.101 0-2.002.9-2.002 2s.9 2 2.002 2c1.101 0 2.002-.9 2.002-2s-.9-2-2.002-2zm0 6c-1.101 0-2.002.9-2.002 2s.9 2 2.002 2c1.101 0 2.002-.9 2.002-2s-.9-2-2.002-2z" fill="#fff"/></svg>