<svg width="14" height="14" fill="none" xmlns="http://www.w3.org/2000/svg"><path fill-rule="evenodd" clip-rule="evenodd" d="M7.303.598l.863.985 1.29-.547a.386.386 0 01.516.241l.394 1.27 1.4.024a.385.385 0 01.374.43l-.155 1.321 1.268.592c.192.09.275.319.185.51-.173.359-.486.82-.698 1.176l.919 1.058a.387.387 0 01-.07.567l-1.085.766.409 1.34a.384.384 0 01-.294.488l-1.302.26-.17 1.389a.386.386 0 01-.496.322l-1.269-.29-.721 1.2a.385.385 0 01-.56.11l-1.067-.795-1.146.802a.384.384 0 01-.556-.128l-.649-1.159-1.376.268a.385.385 0 01-.457-.366l-.119-1.3-1.363-.315a.385.385 0 01-.28-.5l.428-1.258-1.118-.843a.385.385 0 01-.029-.59l.882-.954-.68-1.225a.385.385 0 01.187-.54l1.219-.524-.121-1.396a.387.387 0 01.422-.417l1.295.018.456-1.324a.386.386 0 01.545-.216l1.188.548.955-1.023a.385.385 0 01.584.024h.002zM3.848 7.316c-.511-.51.265-1.288.776-.777l1.72 1.72L9.356 4.92c.482-.536 1.297.198.815.734L6.79 9.4a.55.55 0 01-.814.042l-2.13-2.128h.002z" fill="#7A5CE6"/></svg>