<svg width="21" height="21" viewBox="0 0 21 21" fill="none" xmlns="http://www.w3.org/2000/svg">
<path d="M5.66658 18.3341C5.66658 19.7478 4.57909 20.9044 3.24992 20.9044C1.92075 20.9044 0.833252 19.7478 0.833252 18.3341C0.833252 16.9204 1.92075 15.7638 3.24992 15.7638C4.57909 15.7638 5.66658 16.9204 5.66658 18.3341ZM3.24992 8.05279C1.92075 8.05279 0.833252 9.20944 0.833252 10.6231C0.833252 12.0368 1.92075 13.1935 3.24992 13.1935C4.57909 13.1935 5.66658 12.0368 5.66658 10.6231C5.66658 9.20944 4.57909 8.05279 3.24992 8.05279ZM3.24992 0.341797C1.92075 0.341797 0.833252 1.49845 0.833252 2.91213C0.833252 4.32581 1.92075 5.48246 3.24992 5.48246C4.57909 5.48246 5.66658 4.32581 5.66658 2.91213C5.66658 1.49845 4.57909 0.341797 3.24992 0.341797ZM10.4999 5.48246C11.8291 5.48246 12.9166 4.32581 12.9166 2.91213C12.9166 1.49845 11.8291 0.341797 10.4999 0.341797C9.17075 0.341797 8.08325 1.49845 8.08325 2.91213C8.08325 4.32581 9.17075 5.48246 10.4999 5.48246ZM10.4999 8.05279C9.17075 8.05279 8.08325 9.20944 8.08325 10.6231C8.08325 12.0368 9.17075 13.1935 10.4999 13.1935C11.8291 13.1935 12.9166 12.0368 12.9166 10.6231C12.9166 9.20944 11.8291 8.05279 10.4999 8.05279ZM10.4999 15.7638C9.17075 15.7638 8.08325 16.9204 8.08325 18.3341C8.08325 19.7478 9.17075 20.9044 10.4999 20.9044C11.8291 20.9044 12.9166 19.7478 12.9166 18.3341C12.9166 16.9204 11.8291 15.7638 10.4999 15.7638Z" fill="white"/>
<path d="M12.9166 18.3341C12.9166 19.7478 11.8291 20.9044 10.4999 20.9044C9.17075 20.9044 8.08325 19.7478 8.08325 18.3341C8.08325 16.9204 9.17075 15.7638 10.4999 15.7638C11.8291 15.7638 12.9166 16.9204 12.9166 18.3341ZM10.4999 8.05279C9.17075 8.05279 8.08325 9.20944 8.08325 10.6231C8.08325 12.0368 9.17075 13.1935 10.4999 13.1935C11.8291 13.1935 12.9166 12.0368 12.9166 10.6231C12.9166 9.20944 11.8291 8.05279 10.4999 8.05279ZM10.4999 0.341797C9.17075 0.341797 8.08325 1.49845 8.08325 2.91213C8.08325 4.32581 9.17075 5.48246 10.4999 5.48246C11.8291 5.48246 12.9166 4.32581 12.9166 2.91213C12.9166 1.49845 11.8291 0.341797 10.4999 0.341797ZM17.7499 5.48246C19.0791 5.48246 20.1666 4.32581 20.1666 2.91213C20.1666 1.49845 19.0791 0.341797 17.7499 0.341797C16.4208 0.341797 15.3333 1.49845 15.3333 2.91213C15.3333 4.32581 16.4208 5.48246 17.7499 5.48246ZM17.7499 8.05279C16.4208 8.05279 15.3333 9.20944 15.3333 10.6231C15.3333 12.0368 16.4208 13.1935 17.7499 13.1935C19.0791 13.1935 20.1666 12.0368 20.1666 10.6231C20.1666 9.20944 19.0791 8.05279 17.7499 8.05279ZM17.7499 15.7638C16.4208 15.7638 15.3333 16.9204 15.3333 18.3341C15.3333 19.7478 16.4208 20.9044 17.7499 20.9044C19.0791 20.9044 20.1666 19.7478 20.1666 18.3341C20.1666 16.9204 19.0791 15.7638 17.7499 15.7638Z" fill="white"/>
</svg>
