<svg width="17" height="32" viewBox="0 0 17 32" fill="none" xmlns="http://www.w3.org/2000/svg">
<path d="M10.5253 29.133C10.5253 30.2489 9.64897 31.1535 8.56805 31.1535C7.48712 31.1535 6.61084 30.2489 6.61084 29.133C6.61084 28.0172 7.48712 27.1125 8.56805 27.1125C9.64897 27.1125 10.5253 28.0172 10.5253 29.133Z" fill="white"/>
<path d="M8.56875 22.5663C7.75841 22.5663 7.10075 21.8874 7.10075 21.0508V19.01C7.10075 17.0864 8.2831 15.3627 10.0407 14.7222C12.3796 13.8716 13.9515 11.2991 13.9515 9.43219C13.9515 6.36687 11.5381 3.8754 8.56875 3.8754C5.59943 3.8754 3.18599 6.36687 3.18599 9.43219C3.18599 10.2687 2.52833 10.9477 1.71799 10.9477C0.907658 10.9477 0.25 10.2687 0.25 9.43219C0.25 4.69787 3.98091 0.844482 8.56875 0.844482C13.1566 0.844482 16.8875 4.69787 16.8875 9.43219C16.8875 12.8028 14.3095 16.3812 11.0173 17.5815C10.4303 17.7935 10.0367 18.3692 10.0367 19.0118V21.0508C10.0367 21.8874 9.37908 22.5663 8.56875 22.5663Z" fill="white"/>
</svg>
