<svg width="25" height="22" viewBox="0 0 25 22" fill="none" xmlns="http://www.w3.org/2000/svg">
<path opacity="0.5" d="M12.4994 21.793C12.2702 21.793 12.041 21.7213 11.8502 21.5779L11.2971 21.162C6.2171 17.3504 3.15121 15.049 1.3665 11.9785C-0.34458 9.04457 -0.139038 6.72712 0.332733 5.30055C0.908013 3.56683 2.20206 2.17158 3.9797 1.37144C4.89367 0.961313 5.88749 0.751953 6.93011 0.751953C9.13515 0.751953 11.1731 1.66255 12.4997 3.16394C13.8262 1.66255 15.8627 0.751953 18.0692 0.751953C19.1119 0.751953 20.1042 0.959884 21.0182 1.37001C22.7958 2.17019 24.0913 3.56404 24.6666 5.29912C25.1399 6.72451 25.344 9.04175 23.6329 11.9771C21.8463 15.0473 18.7762 17.3519 13.6901 21.169L13.1503 21.5777C12.958 21.7211 12.7287 21.793 12.4994 21.793ZM6.92989 2.81113C6.19635 2.81113 5.50424 2.95453 4.87126 3.23847C3.63786 3.79342 2.74312 4.74848 2.35271 5.93008C1.86023 7.41428 2.15897 9.15659 3.21341 10.9664C4.77809 13.658 7.52603 15.7303 12.4978 19.463C17.4699 15.7318 20.2178 13.6569 21.7822 10.9678C22.8381 9.1567 23.1353 7.41439 22.6443 5.93008C22.2524 4.74991 21.3577 3.79342 20.1243 3.23847C19.4928 2.95454 18.8007 2.81113 18.0672 2.81113C16.0751 2.81113 14.2236 3.88377 13.4604 5.47979C13.2873 5.84403 12.9102 6.07633 12.4976 6.07633C12.0835 6.07633 11.7093 5.84403 11.5348 5.47979C10.7732 3.88373 8.92196 2.81113 6.92989 2.81113Z" fill="white"/>
</svg>
