<svg width="22" height="22" viewBox="0 0 22 22" fill="none" xmlns="http://www.w3.org/2000/svg">
<path d="M10.9979 0.757935C8.21686 0.757935 7.86815 0.769722 6.77594 0.819556C5.68602 0.869309 4.94164 1.04239 4.29026 1.29554C3.61689 1.55723 3.04584 1.90737 2.47657 2.47664C1.9073 3.04591 1.55716 3.61697 1.29547 4.29033C1.04232 4.94167 0.869238 5.68605 0.819485 6.77597C0.769651 7.86818 0.757904 8.21689 0.757904 10.9979C0.757904 13.7789 0.769651 14.1276 0.819485 15.2198C0.869238 16.3097 1.04232 17.0541 1.29547 17.7055C1.55716 18.3788 1.9073 18.9499 2.47657 19.5192C3.04584 20.0885 3.61689 20.4386 4.29026 20.7003C4.94164 20.9534 5.68602 21.1265 6.77594 21.1762C7.86815 21.2261 8.21686 21.2379 10.9979 21.2379C13.7789 21.2379 14.1276 21.2261 15.2198 21.1762C16.3097 21.1265 17.0541 20.9534 17.7054 20.7003C18.3788 20.4386 18.9499 20.0885 19.5192 19.5192C20.0884 18.9499 20.4386 18.3788 20.7003 17.7055C20.9534 17.0541 21.1265 16.3097 21.1762 15.2198C21.226 14.1276 21.2378 13.7789 21.2378 10.9979C21.2378 8.21689 21.226 7.86818 21.1762 6.77597C21.1265 5.68605 20.9534 4.94167 20.7003 4.29033C20.4386 3.61697 20.0884 3.04591 19.5192 2.47664C18.9499 1.90737 18.3788 1.55723 17.7054 1.29554C17.0541 1.04239 16.3097 0.869309 15.2198 0.819556C14.1276 0.769722 13.7789 0.757935 10.9979 0.757935ZM10.9979 2.60301C13.732 2.60301 14.0559 2.61342 15.1357 2.66268C16.1341 2.70825 16.6763 2.87507 17.0371 3.01526C17.5151 3.20102 17.8562 3.42295 18.2145 3.78126C18.5729 4.13957 18.7948 4.48073 18.9805 4.95866C19.1207 5.31949 19.2876 5.86169 19.3331 6.86007C19.3824 7.93984 19.3928 8.26372 19.3928 10.9979C19.3928 13.7321 19.3824 14.056 19.3331 15.1357C19.2876 16.1341 19.1207 16.6763 18.9805 17.0371C18.7948 17.5151 18.5729 17.8562 18.2145 18.2145C17.8562 18.5729 17.5151 18.7948 17.0371 18.9805C16.6763 19.1208 16.1341 19.2876 15.1357 19.3331C14.0561 19.3824 13.7323 19.3928 10.9979 19.3928C8.26348 19.3928 7.93969 19.3824 6.86004 19.3331C5.86166 19.2876 5.31946 19.1208 4.95863 18.9805C4.48066 18.7948 4.13954 18.5729 3.78119 18.2145C3.42288 17.8562 3.20095 17.5151 3.01523 17.0371C2.87499 16.6763 2.70818 16.1341 2.66261 15.1357C2.61335 14.056 2.60294 13.7321 2.60294 10.9979C2.60294 8.26372 2.61335 7.93984 2.66261 6.86007C2.70818 5.86169 2.87499 5.31949 3.01523 4.95866C3.20095 4.48073 3.42288 4.13957 3.78119 3.78126C4.13954 3.42295 4.48066 3.20102 4.95863 3.01526C5.31946 2.87507 5.86166 2.70825 6.86004 2.66268C7.93981 2.61342 8.26369 2.60301 10.9979 2.60301Z" fill="white"/>
<path d="M10.9968 14.4101C9.11164 14.4101 7.58345 12.882 7.58345 10.9968C7.58345 9.11169 9.11164 7.5835 10.9968 7.5835C12.8819 7.5835 14.4101 9.11169 14.4101 10.9968C14.4101 12.882 12.8819 14.4101 10.9968 14.4101ZM10.9968 5.73846C8.09265 5.73846 5.73842 8.09269 5.73842 10.9968C5.73842 13.9009 8.09265 16.2552 10.9968 16.2552C13.9009 16.2552 16.2551 13.9009 16.2551 10.9968C16.2551 8.09269 13.9009 5.73846 10.9968 5.73846Z" fill="white"/>
<path d="M17.6885 5.53163C17.6885 6.21029 17.1383 6.76041 16.4597 6.76041C15.781 6.76041 15.2309 6.21029 15.2309 5.53163C15.2309 4.85298 15.781 4.30286 16.4597 4.30286C17.1383 4.30286 17.6885 4.85298 17.6885 5.53163Z" fill="white"/>
</svg>
