<svg width="33" height="31" viewBox="0 0 33 31" fill="none" xmlns="http://www.w3.org/2000/svg">
<path d="M31.8225 6.55621C31.2142 5.79437 30.2681 5.33133 29.2891 5.33133H8.71854L8.07728 2.88156C7.70518 1.45748 6.42267 0.464111 4.93559 0.464111H1.49051C0.916538 0.464111 0.442825 0.927151 0.442825 1.49112C0.442825 2.05376 0.915186 2.51812 1.49051 2.51812H4.93559C5.44227 2.51812 5.88167 2.84924 6.01624 3.34593L10.1369 19.4391C10.509 20.8632 11.7915 21.8565 13.2786 21.8565H26.7556C28.2413 21.8565 29.5595 20.8632 29.8973 19.4391L32.4307 9.24021C32.6669 8.31152 32.465 7.31815 31.8224 6.55631L31.8225 6.55621ZM30.371 8.77446L27.8376 18.9733C27.7031 19.47 27.2637 19.8011 26.757 19.8011H13.2786C12.7719 19.8011 12.3326 19.47 12.198 18.9733L9.2595 7.41786H29.2906C29.6284 7.41786 29.9662 7.58342 30.1694 7.84858C30.3713 8.11244 30.4715 8.44357 30.3713 8.77469L30.371 8.77446Z" fill="white"/>
<path d="M13.9889 23.1778C12.0638 23.1778 10.4766 24.7338 10.4766 26.6208C10.4766 28.5078 12.064 30.0638 13.9889 30.0638C15.914 30.0651 17.5012 28.5091 17.5012 26.6218C17.5012 24.7345 15.9139 23.1775 13.9889 23.1775V23.1778ZM13.9889 27.9791C13.2118 27.9791 12.6035 27.3828 12.6035 26.621C12.6035 25.8591 13.2118 25.2628 13.9889 25.2628C14.7661 25.2628 15.3744 25.8591 15.3744 26.621C15.3731 27.3504 14.7318 27.9791 13.9889 27.9791Z" fill="white"/>
<path d="M25.608 23.1782C23.6829 23.1782 22.0957 24.7342 22.0957 26.6212C22.0957 28.5082 23.6831 30.0642 25.608 30.0642C27.533 30.0642 29.1204 28.5082 29.1204 26.6212C29.0874 24.7354 27.533 23.1782 25.608 23.1782ZM25.608 27.9795C24.8309 27.9795 24.2226 27.3832 24.2226 26.6214C24.2226 25.8595 24.8309 25.2632 25.608 25.2632C26.3852 25.2632 26.9935 25.8595 26.9935 26.6214C26.9935 27.3508 26.3509 27.9795 25.608 27.9795Z" fill="white"/>
</svg>
