<svg width="31" height="31" viewBox="0 0 31 31" fill="none" xmlns="http://www.w3.org/2000/svg">
<path d="M16.0209 2.50415C20.2942 2.50415 23.7707 5.8085 23.7707 9.87029C23.7707 12.6241 22.1768 15.0331 19.8599 16.2728C24.5676 17.7185 28.044 21.6426 28.4784 26.5302C28.6232 27.769 26.1604 27.8383 26.0886 26.6679C25.5812 21.7802 21.1632 18.063 16.021 18.063C10.8059 18.063 6.46078 21.7802 5.95337 26.6679C5.80856 27.8383 3.34583 27.769 3.49064 26.5302C3.99798 21.711 7.47424 17.7185 12.1091 16.2728C9.79116 15.0341 8.1983 12.6239 8.1983 9.87029C8.1983 5.8085 11.7476 2.50415 16.0209 2.50415ZM16.0209 4.84496C13.0519 4.84496 10.661 7.11645 10.661 9.87009C10.661 12.6921 13.0508 14.9647 16.0209 14.9647C18.9182 14.9647 21.3078 12.6932 21.3078 9.87009C21.3078 7.11625 18.918 4.84496 16.0209 4.84496Z" fill="white"/>
</svg>
