<svg width="29" height="25" viewBox="0 0 29 25" fill="none" xmlns="http://www.w3.org/2000/svg">
<path d="M14.4839 24.5042C14.2233 24.5042 13.9628 24.4232 13.7459 24.2614L13.1172 23.792C7.34292 19.4896 3.85803 16.8919 1.8294 13.4261C-0.115519 10.1144 0.118113 7.49861 0.65436 5.88837C1.30826 3.93144 2.77916 2.35655 4.79974 1.4534C5.83863 0.990464 6.96827 0.75415 8.15338 0.75415C10.6598 0.75415 12.9762 1.78199 14.4841 3.47667C15.992 1.78199 18.3067 0.75415 20.8149 0.75415C22 0.75415 23.1279 0.988852 24.1668 1.45178C26.1874 2.35498 27.66 3.92829 28.3139 5.88676C28.8518 7.49566 29.0838 10.1112 27.1388 13.4245C25.1081 16.89 21.6184 19.4913 15.8372 23.7999L15.2237 24.2612C15.0051 24.4231 14.7444 24.5042 14.4839 24.5042ZM8.15312 3.07844C7.31934 3.07844 6.53263 3.2403 5.81315 3.5608C4.41119 4.1872 3.39416 5.26522 2.9504 6.59895C2.39061 8.27424 2.73018 10.2409 3.92873 12.2837C5.70724 15.3218 8.83074 17.6609 14.482 21.8742C20.1336 17.6626 23.257 15.3206 25.0352 12.2853C26.2355 10.241 26.5733 8.27436 26.0152 6.59895C25.5697 5.26684 24.5527 4.1872 23.1508 3.5608C22.433 3.24032 21.6463 3.07844 20.8125 3.07844C18.5482 3.07844 16.4437 4.28918 15.5761 6.09068C15.3794 6.50182 14.9508 6.76403 14.4818 6.76403C14.011 6.76403 13.5858 6.50182 13.3874 6.09068C12.5217 4.28914 10.4174 3.07844 8.15312 3.07844Z" fill="white"/>
</svg>
