<svg width="29" height="29" viewBox="0 0 29 29" fill="none" xmlns="http://www.w3.org/2000/svg">
<path fill-rule="evenodd" clip-rule="evenodd" d="M20.7669 0.000712777C20.5523 -0.00944102 20.3475 0.0894382 20.2254 0.262187L15.5516 6.87447H11.5034C11.0114 6.87447 10.3911 7.00613 9.87548 7.27071C9.38017 7.52489 8.79957 8.00581 8.79446 8.77009L8.79445 8.77106L8.79445 8.77309L8.79445 8.77406C8.79445 9.4744 9.22918 9.96482 9.70039 10.2508C10.1657 10.5331 10.7369 10.6681 11.2353 10.6681H15.5402L20.214 17.2804C20.3361 17.4531 20.5409 17.552 20.7555 17.5418L23.1109 17.4304C23.3106 17.421 23.4934 17.3183 23.6022 17.1546C23.711 16.9908 23.7326 16.7859 23.6602 16.604L21.2975 10.6681H24.1297L25.7795 12.665C25.9008 12.8117 26.0849 12.8951 26.2779 12.8907L27.7265 12.8573C27.9422 12.8523 28.1397 12.7385 28.2485 12.5566C28.3573 12.3747 28.3618 12.1507 28.2604 11.9648L26.517 8.76848L28.2604 5.57218C28.3618 5.38625 28.3573 5.16227 28.2485 4.98037L27.9859 5.13027L28.2485 4.98037C28.1397 4.79848 27.9422 4.68468 27.7265 4.67971L26.2779 4.64628C26.0847 4.64183 25.9003 4.72545 25.7791 4.87254L24.1292 6.87447H21.2989L23.6713 0.939387C23.744 0.757379 23.7227 0.552295 23.6139 0.388338C23.5051 0.224377 23.3221 0.121581 23.1223 0.11213L20.7669 0.000712777ZM16.3892 7.82657L21.052 1.22991L22.1989 1.28416L19.81 7.26079L20.0933 7.36885L19.81 7.26079C19.7353 7.44763 19.7599 7.65844 19.8757 7.82407C19.9915 7.9897 20.1836 8.08876 20.389 8.08876H24.4268C24.615 8.08876 24.793 8.0055 24.911 7.86233L26.5551 5.86731L26.6892 5.8704L25.2641 8.48299C25.1668 8.66145 25.1668 8.87552 25.2641 9.05398L26.6892 11.6666L26.5547 11.6697L24.9105 9.67963C24.7925 9.5368 24.6147 9.45378 24.4268 9.45378H20.389C20.1838 9.45378 19.9918 9.5527 19.876 9.71811L20.1158 9.87836L19.876 9.71811C19.7601 9.88353 19.7353 10.0941 19.8096 10.2809L22.1888 16.2583L21.0406 16.3126L16.3778 9.71597C16.2618 9.55179 16.0706 9.45378 15.8663 9.45378H11.2353C10.9411 9.45378 10.6026 9.3687 10.3564 9.21931C10.1191 9.07533 10.0384 8.92358 10.0376 8.7763C10.039 8.68565 10.1103 8.52187 10.4536 8.34569C10.7821 8.17714 11.2026 8.08876 11.5034 8.08876H15.8777C16.082 8.08876 16.2732 7.99075 16.3892 7.82657ZM8.10807 11.0585C7.98596 10.8858 7.78116 10.7869 7.56651 10.7971L5.21109 10.9085C5.01145 10.9179 4.82864 11.0206 4.71981 11.1843C4.61098 11.3481 4.58941 11.553 4.66183 11.7349L7.02451 17.6708H4.19801L2.54817 15.6739C2.42747 15.5278 2.24436 15.4445 2.05219 15.4482L0.609284 15.476C0.393227 15.4802 0.194894 15.5937 0.0855094 15.7757C-0.0238753 15.9578 -0.0286104 16.1822 0.073004 16.3685L1.81644 19.5648L0.073004 22.7612C-0.0284096 22.9471 -0.0239065 23.1711 0.0849041 23.353C0.193713 23.5349 0.391274 23.6486 0.606887 23.6536L2.0555 23.687C2.24909 23.6915 2.43375 23.6076 2.55495 23.4601L4.19906 21.4589H7.03021L4.66754 27.3948C4.59511 27.5767 4.61668 27.7816 4.72551 27.9454C4.83434 28.1091 5.01715 28.2118 5.21679 28.2212L7.57221 28.3326C7.78687 28.3428 7.99166 28.2439 8.11377 28.0711L12.7876 21.4589H17.0924C17.5909 21.4589 18.162 21.3239 18.6273 21.0415C19.0985 20.7556 19.5333 20.2652 19.5333 19.5648C19.5333 18.8018 18.9491 18.3213 18.4576 18.0687C17.9435 17.8044 17.3232 17.6708 16.83 17.6708H12.7819L8.10807 11.0585ZM8.51238 18.058L6.1332 12.0806L7.28144 12.0263L11.9442 18.6229C12.0602 18.7871 12.2515 18.8851 12.4557 18.8851H16.83C17.1296 18.8851 17.5502 18.9744 17.8787 19.1433C18.2264 19.322 18.2901 19.4843 18.2901 19.5648C18.2901 19.7129 18.2097 19.8654 17.9713 20.0101C17.7251 20.1595 17.3866 20.2446 17.0924 20.2446H12.4614C12.2572 20.2446 12.0659 20.3426 11.9499 20.5068L7.28714 27.1034L6.1389 27.0491L8.51808 21.0717C8.59244 20.8849 8.56762 20.6743 8.45177 20.5089C8.33591 20.3435 8.14395 20.2446 7.93877 20.2446H3.9009C3.71241 20.2446 3.53411 20.3281 3.41613 20.4717L1.7777 22.466L1.64424 22.4629L3.06929 19.8503C3.16663 19.6719 3.16663 19.4578 3.06929 19.2794L1.6463 16.6705L1.77212 16.6681L3.4172 18.6593L3.6538 18.4728L3.4172 18.6593C3.5352 18.8021 3.71301 18.8851 3.9009 18.8851H7.93306C8.13824 18.8851 8.33021 18.7862 8.44606 18.6208C8.56192 18.4554 8.58673 18.2448 8.51238 18.058Z" fill="#1A1A1A"/>
</svg>
