<svg width="28" height="32" viewBox="0 0 28 32" fill="none" xmlns="http://www.w3.org/2000/svg">
<path fill-rule="evenodd" clip-rule="evenodd" d="M13.8368 0.62502C14.5272 0.621201 15.0899 1.17774 15.0937 1.86809L15.25 30.1181C15.2538 30.8084 14.6973 31.3712 14.0069 31.375C13.3166 31.3788 12.7538 30.8223 12.75 30.1319L12.5938 1.88191C12.59 1.19157 13.1465 0.628838 13.8368 0.62502Z" fill="#1A1A1A"/>
<path fill-rule="evenodd" clip-rule="evenodd" d="M13.6144 0.646225C13.764 0.618287 13.9176 0.617927 14.0674 0.645163L26.0986 2.83266C26.7778 2.95616 27.2283 3.60689 27.1048 4.28611C26.9813 4.96533 26.3306 5.41583 25.6514 5.29234L13.8467 3.14604L3.375 5.10076V17.5625C3.375 20.6469 5.87249 23.4589 8.80827 25.6414C10.2286 26.6973 11.6564 27.5349 12.7331 28.1097C13.2557 28.3886 13.692 28.6037 14 28.7501C14.308 28.6037 14.7443 28.3886 15.2669 28.1097C16.3436 27.5349 17.7714 26.6973 19.1917 25.6414C22.1275 23.4589 24.625 20.6469 24.625 17.5625V8.0625C24.625 7.37214 25.1846 6.8125 25.875 6.8125C26.5654 6.8125 27.125 7.37214 27.125 8.0625V17.5625C27.125 21.9469 23.685 25.4161 20.6833 27.6477C19.1348 28.7988 17.5939 29.7014 16.4441 30.3151C15.8677 30.6228 15.3858 30.8599 15.0455 31.0211C14.8753 31.1018 14.7403 31.1636 14.6462 31.2059C14.5992 31.2271 14.5624 31.2434 14.5366 31.2547L14.5062 31.268L14.4973 31.2718L14.4935 31.2735C14.4931 31.2736 14.4928 31.2738 14 30.125C13.5072 31.2738 13.5069 31.2736 13.5065 31.2735L13.5027 31.2718L13.4938 31.268L13.4634 31.2547C13.4376 31.2434 13.4008 31.2271 13.3538 31.2059C13.2597 31.1636 13.1247 31.1018 12.9545 31.0211C12.6142 30.8599 12.1323 30.6228 11.5559 30.3151C10.4061 29.7014 8.86519 28.7988 7.31673 27.6477C4.31501 25.4161 0.875 21.9469 0.875 17.5625V4.0625C0.875 3.4606 1.30395 2.94417 1.89563 2.83372L13.6144 0.646225ZM14 30.125L13.5072 31.2738C13.8219 31.4087 14.1781 31.4087 14.4928 31.2738L14 30.125Z" fill="#1A1A1A"/>
</svg>
