<svg width="30" height="30" viewBox="0 0 30 30" fill="none" xmlns="http://www.w3.org/2000/svg">
<path d="M2.74366 23.6305C5.46138 27.4789 9.94046 29.9993 15.0003 29.9993C23.2709 29.9993 30 23.2702 30 14.999C30 6.72843 23.2709 0 15.0003 0C6.72909 0 0 6.72876 0 14.999C0 18.1531 0.980973 21.0811 2.65019 23.4991C2.6768 23.546 2.70807 23.5896 2.74366 23.6305ZM20.0073 27.3478C20.002 27.3478 19.9977 27.3465 19.993 27.3465C18.5294 27.3465 18.1661 27.0548 17.8132 26.771C17.5371 26.5505 17.3708 26.2351 17.4077 26.0023C17.439 25.8067 17.6089 25.5658 17.7889 25.311C17.8415 25.2375 17.8934 25.164 17.9436 25.0895C18.6401 24.0613 19.039 22.8135 19.0676 21.5757C19.0716 21.4111 19.026 21.2491 18.9382 21.1094C17.9409 19.5356 16.0309 20.2635 14.4974 20.8486C13.7496 21.1333 12.9369 21.4433 12.3155 21.4823C12.3694 21.4324 12.4253 21.3821 12.4812 21.3312C13.0374 20.8293 13.7293 20.2049 13.693 19.194C13.6554 18.1967 12.8647 17.0787 11.7464 17.0039C10.0096 16.8861 9.2582 16.3795 9.14244 15.9813C9.10685 15.8582 9.13346 15.7564 9.16572 15.6942C10.1337 15.9943 11.9101 16.4693 12.9579 15.2215C13.7532 14.2805 13.6428 12.885 12.6552 11.3918L12.5877 11.29C12.1193 10.5848 11.6353 9.8553 11.8053 9.29313C11.9067 8.95882 12.2666 8.65012 12.568 8.4196C13.3438 7.82749 14.2026 7.35979 15.1208 7.02947L15.1916 7.00386C16.3545 6.58639 18.1119 5.95536 18.2406 4.28514C18.3102 3.37236 17.8092 2.66549 17.407 2.09733C17.3521 2.01849 17.2983 1.94132 17.2457 1.86481C19.2246 2.20212 21.0555 2.97652 22.6362 4.08589L19.7332 8.15781C19.0044 9.17903 18.9615 10.154 19.6188 10.7667C19.9461 11.0718 20.3433 11.1553 20.5595 11.2012C21.113 11.3156 21.6849 11.3775 22.2869 11.3851C22.3175 11.3855 22.3551 11.3861 22.3904 11.3871C22.402 11.4337 22.415 11.5049 22.423 11.6103C22.4736 12.3139 22.3847 13.0384 22.1652 13.706C22.075 13.9798 22.1326 14.2812 22.3172 14.5027C22.7922 15.0715 23.6654 15.1553 24.4378 14.7083C24.5313 14.6547 24.6238 14.5955 24.7159 14.536C24.8323 14.4611 25.0266 14.3357 25.0895 14.3334C25.165 14.3437 25.4288 14.5346 25.5678 14.6444C25.9258 14.9281 26.4164 15.316 27.083 15.32C27.087 15.3203 27.09 15.3203 27.094 15.3203C27.5398 15.32 27.9672 15.1351 28.3231 14.8137C28.3245 14.8763 28.3285 14.9371 28.3285 14.9997C28.3281 20.5781 24.8816 25.3642 20.0073 27.3478ZM27.9559 11.8794C27.7936 12.1808 27.6928 12.4879 27.6043 12.7596C27.5437 12.9469 27.4865 13.1242 27.4183 13.2722C27.2969 13.5334 27.1349 13.6485 27.0933 13.6485C27.0019 13.6478 26.7627 13.4585 26.6047 13.3334C26.2331 13.0394 25.7328 12.6369 25.0253 12.6632C24.6301 12.6781 24.3041 12.8308 24.041 12.9865C24.1098 12.4932 24.1261 11.9922 24.0895 11.4876C24.031 10.7112 23.7413 10.1786 23.2293 9.90486C22.887 9.72124 22.5381 9.71692 22.2796 9.71359C21.8126 9.70727 21.3472 9.65737 20.9008 9.5649C20.8852 9.56157 20.8709 9.55858 20.8586 9.55592C20.8948 9.45479 20.967 9.3061 21.0937 9.12847L23.9452 5.12873C25.8965 6.89774 27.3192 9.23724 27.9559 11.8794ZM15.0003 1.67155C15.0951 1.67155 15.1893 1.67687 15.2844 1.67853C15.4474 2.21808 15.7614 2.66383 16.0438 3.063C16.3419 3.48347 16.5987 3.84638 16.5754 4.15707C16.5298 4.74719 15.4754 5.12607 14.6281 5.43011L14.5559 5.45639C13.4768 5.84459 12.4666 6.39445 11.5538 7.09134C11.0528 7.47488 10.4467 8.0171 10.2069 8.80846C9.80806 10.1247 10.5778 11.2833 11.1959 12.2148L11.2621 12.3145C11.6602 12.9163 12.0092 13.7559 11.6805 14.1448C11.3362 14.5546 10.3922 14.3281 9.51633 14.0526C8.98477 13.884 8.39631 14.0573 7.97984 14.5034C7.45958 15.0622 7.31122 15.8995 7.60295 16.6376C7.92895 17.4632 8.89395 18.4861 11.635 18.6717C11.7667 18.6804 12.0132 18.9788 12.0235 19.2555C12.0311 19.4704 11.767 19.7256 11.3622 20.0908C10.9151 20.4943 10.4085 20.9517 10.183 21.6363C10.0802 21.9483 10.1693 22.2919 10.4118 22.5138C11.7068 23.701 13.5843 22.9858 15.0935 22.4104C16.144 22.0098 16.9979 21.7135 17.3764 21.8785C17.2989 22.6851 17.0142 23.4811 16.5608 24.1521C16.5165 24.2166 16.471 24.2815 16.4251 24.3457C16.1686 24.7083 15.8496 25.1597 15.7571 25.7398C15.6234 26.5754 16.0119 27.4706 16.768 28.075C16.8156 28.1132 16.8635 28.1512 16.913 28.1884C16.288 28.2786 15.6493 28.3278 15.0003 28.3278C10.5745 28.3278 6.64793 26.1576 4.22261 22.8275C4.29812 21.4064 4.9684 20.4311 5.51993 19.6434L5.5961 19.535C5.77008 19.2838 6.00093 18.8936 5.99228 18.4006C5.97997 17.8375 5.66928 17.4433 5.44275 17.1555C5.39984 17.101 5.35693 17.0468 5.31801 16.9929C4.77214 16.2235 5.14703 15.0269 5.77673 14.2921L5.83527 14.2239C6.12567 13.8893 6.56477 13.3837 6.51287 12.6825C6.4693 12.0328 6.00426 11.4643 5.32533 11.2328C4.84465 11.0708 4.36199 11.105 3.95582 11.1599C3.33078 11.2424 2.71805 11.3851 2.11962 11.5764C3.63449 5.88085 8.83408 1.67155 15.0003 1.67155ZM1.7587 13.4991C2.5311 13.1605 3.3401 12.9266 4.1757 12.8165C4.39392 12.7872 4.63708 12.7643 4.78777 12.8152C4.79742 12.8185 4.80673 12.8222 4.81438 12.8265C4.75783 12.9153 4.64607 13.0437 4.57255 13.1279L4.50768 13.2037C3.44022 14.4495 2.90733 16.4833 3.95549 17.9609C4.01071 18.0377 4.06992 18.1139 4.12947 18.1897C4.18934 18.2649 4.27383 18.3724 4.31009 18.4369C4.29778 18.4638 4.2725 18.5094 4.22361 18.5799L4.15009 18.6847C3.78484 19.206 3.31448 19.8789 2.97618 20.7458C2.14058 19.0051 1.67155 17.0557 1.67155 14.999C1.67155 14.4917 1.70281 13.9921 1.7587 13.4991Z" fill="#1A1A1A"/>
</svg>
