<svg width="24" height="24" viewBox="0 0 24 24" fill="none" xmlns="http://www.w3.org/2000/svg">
<path d="M12 8.69897C10.1553 8.69897 8.69899 10.1553 8.69899 11.9999C8.69899 13.8446 10.1553 15.3009 12 15.3009C13.8446 15.3009 15.3009 13.8446 15.3009 11.9999C15.3009 10.1553 13.8446 8.69897 12 8.69897Z" fill="white"/>
<path d="M21.9029 7.92233C21.9029 6.85437 21.7087 6.17476 21.4175 5.49515C21.1262 4.81553 20.835 4.3301 20.2524 3.74757C19.6699 3.16505 19.1845 2.87379 18.5049 2.58252C17.8252 2.29126 17.1456 2.19417 16.0777 2.09709C15.0097 2.09709 14.7184 2 12 2C9.28155 2 8.99029 2 7.92233 2.09709C6.85437 2.19417 6.07767 2.29126 5.49515 2.58252C4.81553 2.87379 4.23301 3.16505 3.74757 3.74757C3.16505 4.23301 2.87379 4.81553 2.58252 5.49515C2.29126 6.07767 2.19417 6.85437 2.09709 7.92233C2.09709 8.99029 2 9.28155 2 12C2 14.7184 2 15.0097 2.09709 16.0777C2.09709 17.1456 2.29126 17.8252 2.58252 18.5049C2.87379 19.1845 3.16505 19.6699 3.74757 20.2524C4.3301 20.835 4.81553 21.1262 5.49515 21.4175C6.17476 21.7087 6.85437 21.8058 7.92233 21.9029C8.99029 21.9029 9.28155 22 12 22C14.7184 22 15.0097 22 16.0777 21.9029C17.1456 21.9029 17.8252 21.7087 18.5049 21.4175C19.1845 21.1262 19.6699 20.835 20.2524 20.2524C20.835 19.6699 21.1262 19.1845 21.4175 18.5049C21.7087 17.8252 21.8058 17.1456 21.9029 16.0777C21.9029 15.0097 22 14.7184 22 12C21.9029 9.28155 21.9029 8.99029 21.9029 7.92233ZM12 17.1456C9.18447 17.1456 6.85437 14.8155 6.85437 12C6.85437 9.18447 9.18447 6.85437 12 6.85437C14.8155 6.85437 17.1456 9.18447 17.1456 12C17.1456 14.8155 14.8155 17.1456 12 17.1456ZM17.3398 7.92233C16.6602 7.92233 16.1748 7.33981 16.1748 6.75728C16.1748 6.07767 16.7573 5.59223 17.3398 5.59223C18.0194 5.59223 18.5049 6.17476 18.5049 6.75728C18.5049 7.33981 17.9223 7.92233 17.3398 7.92233Z" fill="white"/>
</svg>
