<svg width="24" height="24" viewBox="0 0 24 24" fill="none" xmlns="http://www.w3.org/2000/svg">
<g clip-path="url(#clip0)">
<path d="M8.28961 20C15.8368 20 19.9648 13.459 19.9648 7.78671C19.9648 7.60095 19.9648 7.41601 19.9528 7.23188C20.7559 6.62421 21.4491 5.87188 22 5.01C21.2511 5.35713 20.4566 5.58474 19.6432 5.68534C20.4996 5.14906 21.141 4.30491 21.4472 3.31113C20.6418 3.81109 19.7605 4.16349 18.8416 4.35305C18.0657 3.48999 16.9821 3 15.8497 3C13.5965 3 11.7425 4.93951 11.7425 7.29648C11.7425 7.62347 11.7782 7.94943 11.8488 8.26791C8.55121 8.09502 5.47457 6.46337 3.39199 3.78314C2.30902 5.73336 2.86937 8.26072 4.66238 9.51317C4.00945 9.49294 3.37055 9.30865 2.8 8.9759V9.03029C2.80055 11.0658 4.18465 12.8351 6.09199 13.2381C5.48793 13.4104 4.85398 13.4356 4.23922 13.3117C4.77543 15.056 6.32168 16.2583 8.07281 16.2927C6.62008 17.487 4.82449 18.1357 2.9768 18.1338C2.65031 18.1331 2.32414 18.1125 2 18.0718C3.87633 19.3314 6.06016 19.9998 8.28961 19.9967" fill="white"/>
</g>
<defs>
<clipPath id="clip0">
<rect width="24" height="24" fill="white"/>
</clipPath>
</defs>
</svg>
