<svg width="20" height="19" viewBox="0 0 20 19" fill="none" xmlns="http://www.w3.org/2000/svg">
<path d="M14.4347 0C12.7639 0 11.1603 0.81 10.1137 2.09C9.06704 0.81 7.46346 0 5.79266 0C2.83516 0 0.511414 2.42 0.511414 5.5C0.511414 9.28 3.77619 12.36 8.72136 17.04L10.1137 18.35L11.506 17.03C16.4512 12.36 19.716 9.28 19.716 5.5C19.716 2.42 17.3922 0 14.4347 0ZM10.2097 15.55L10.1137 15.65L10.0177 15.55C5.44698 11.24 2.43187 8.39 2.43187 5.5C2.43187 3.5 3.87221 2 5.79266 2C7.27141 2 8.71175 2.99 9.22068 4.36H11.0163C11.5156 2.99 12.956 2 14.4347 2C16.3552 2 17.7955 3.5 17.7955 5.5C17.7955 8.39 14.7804 11.24 10.2097 15.55Z" fill="white"/>
</svg>
