<svg width="15" height="14" viewBox="0 0 15 14" fill="none" xmlns="http://www.w3.org/2000/svg">
<path d="M4.67492 11.2C3.93555 11.2 3.33733 11.83 3.33733 12.6C3.33733 13.37 3.93555 14 4.67492 14C5.4143 14 6.01924 13.37 6.01924 12.6C6.01924 11.83 5.4143 11.2 4.67492 11.2ZM0.641968 0V1.4H1.98629L4.40606 6.713L3.49864 8.428C3.3911 8.624 3.3306 8.855 3.3306 9.1C3.3306 9.87 3.93555 10.5 4.67492 10.5H12.7408V9.1H4.95723C4.86313 9.1 4.78919 9.023 4.78919 8.925L4.80935 8.841L5.4143 7.7H10.4219C10.926 7.7 11.3696 7.413 11.5982 6.979L14.0045 2.436C14.0583 2.338 14.0851 2.219 14.0851 2.1C14.0851 1.715 13.7827 1.4 13.413 1.4H3.47176L2.83993 0H0.641968ZM11.3965 11.2C10.6571 11.2 10.0589 11.83 10.0589 12.6C10.0589 13.37 10.6571 14 11.3965 14C12.1359 14 12.7408 13.37 12.7408 12.6C12.7408 11.83 12.1359 11.2 11.3965 11.2Z" fill="white"/>
</svg>
