<svg width="20" height="19" viewBox="0 0 20 19" fill="none" xmlns="http://www.w3.org/2000/svg">
<path d="M14.2372 0C12.5569 0 10.9441 0.81 9.89152 2.09C8.83889 0.81 7.22615 0 5.5458 0C2.5714 0 0.234375 2.42 0.234375 5.5C0.234375 9.28 3.5178 12.36 8.49123 17.04L9.89152 18.35L11.2918 17.03C16.2652 12.36 19.5487 9.28 19.5487 5.5C19.5487 2.42 17.2116 0 14.2372 0ZM9.98809 15.55L9.89152 15.65L9.79495 15.55C5.19815 11.24 2.1658 8.39 2.1658 5.5C2.1658 3.5 3.61438 2 5.5458 2C7.033 2 8.48158 2.99 8.9934 4.36H10.7993C11.3015 2.99 12.75 2 14.2372 2C16.1687 2 17.6172 3.5 17.6172 5.5C17.6172 8.39 14.5849 11.24 9.98809 15.55Z" fill="#58585A"/>
</svg>
