<svg width="26" height="26" viewBox="0 0 26 26" fill="none" xmlns="http://www.w3.org/2000/svg">
<circle r="13" transform="matrix(1 0 0 -1 13 13)" fill="#58585A"/>
<path d="M16.91 9.09C16.79 8.97 16.5956 8.97 16.4756 9.09L13 12.5656L9.52437 9.09C9.40437 8.97 9.20998 8.97 9.09 9.09C8.97001 9.20999 8.97 9.40438 9.09 9.52437L12.5656 13L9.09 16.4756C8.97 16.5956 8.97 16.79 9.09 16.91C9.20999 17.03 9.40438 17.03 9.52437 16.91L13 13.4344L16.4756 16.91C16.5956 17.03 16.79 17.03 16.91 16.91C17.03 16.79 17.03 16.5956 16.91 16.4756L13.4344 13L16.91 9.52437C17.03 9.40437 17.03 9.20998 16.91 9.09Z" fill="white"/>
</svg>
