<svg width="24" height="24" viewBox="0 0 24 24" fill="none" xmlns="http://www.w3.org/2000/svg">
<path d="M4.54054 10.4C3.68811 10.4 3 11.1147 3 12C3 12.8853 3.68811 13.6 4.54054 13.6C5.39297 13.6 6.08108 12.8853 6.08108 12C6.08108 11.1147 5.39297 10.4 4.54054 10.4ZM4.54054 4C3.68811 4 3 4.71467 3 5.6C3 6.48533 3.68811 7.2 4.54054 7.2C5.39297 7.2 6.08108 6.48533 6.08108 5.6C6.08108 4.71467 5.39297 4 4.54054 4ZM4.54054 16.8C3.68811 16.8 3 17.5253 3 18.4C3 19.2747 3.69838 20 4.54054 20C5.3827 20 6.08108 19.2747 6.08108 18.4C6.08108 17.5253 5.39297 16.8 4.54054 16.8ZM7.62162 19.4667H22V17.3333H7.62162V19.4667ZM7.62162 13.0667H22V10.9333H7.62162V13.0667ZM7.62162 4.53333V6.66667H22V4.53333H7.62162Z" fill="white"/>
</svg>
