<svg width="25" height="24" viewBox="0 0 25 24" fill="none" xmlns="http://www.w3.org/2000/svg">
<path d="M8.94234 18C8.94234 19.1 8.04125 20 6.93992 20C5.83859 20 4.9375 19.1 4.9375 18C4.9375 16.9 5.83859 16 6.93992 16C8.04125 16 8.94234 16.9 8.94234 18ZM6.93992 10C5.83859 10 4.9375 10.9 4.9375 12C4.9375 13.1 5.83859 14 6.93992 14C8.04125 14 8.94234 13.1 8.94234 12C8.94234 10.9 8.04125 10 6.93992 10ZM6.93992 4C5.83859 4 4.9375 4.9 4.9375 6C4.9375 7.1 5.83859 8 6.93992 8C8.04125 8 8.94234 7.1 8.94234 6C8.94234 4.9 8.04125 4 6.93992 4ZM12.9472 8C14.0485 8 14.9496 7.1 14.9496 6C14.9496 4.9 14.0485 4 12.9472 4C11.8458 4 10.9448 4.9 10.9448 6C10.9448 7.1 11.8458 8 12.9472 8ZM12.9472 10C11.8458 10 10.9448 10.9 10.9448 12C10.9448 13.1 11.8458 14 12.9472 14C14.0485 14 14.9496 13.1 14.9496 12C14.9496 10.9 14.0485 10 12.9472 10ZM12.9472 16C11.8458 16 10.9448 16.9 10.9448 18C10.9448 19.1 11.8458 20 12.9472 20C14.0485 20 14.9496 19.1 14.9496 18C14.9496 16.9 14.0485 16 12.9472 16Z" fill="white"/>
<path d="M14.9502 18C14.9502 19.1 14.0491 20 12.9477 20C11.8464 20 10.9453 19.1 10.9453 18C10.9453 16.9 11.8464 16 12.9477 16C14.0491 16 14.9502 16.9 14.9502 18ZM12.9477 10C11.8464 10 10.9453 10.9 10.9453 12C10.9453 13.1 11.8464 14 12.9477 14C14.0491 14 14.9502 13.1 14.9502 12C14.9502 10.9 14.0491 10 12.9477 10ZM12.9477 4C11.8464 4 10.9453 4.9 10.9453 6C10.9453 7.1 11.8464 8 12.9477 8C14.0491 8 14.9502 7.1 14.9502 6C14.9502 4.9 14.0491 4 12.9477 4ZM18.955 8C20.0563 8 20.9574 7.1 20.9574 6C20.9574 4.9 20.0563 4 18.955 4C17.8537 4 16.9526 4.9 16.9526 6C16.9526 7.1 17.8537 8 18.955 8ZM18.955 10C17.8537 10 16.9526 10.9 16.9526 12C16.9526 13.1 17.8537 14 18.955 14C20.0563 14 20.9574 13.1 20.9574 12C20.9574 10.9 20.0563 10 18.955 10ZM18.955 16C17.8537 16 16.9526 16.9 16.9526 18C16.9526 19.1 17.8537 20 18.955 20C20.0563 20 20.9574 19.1 20.9574 18C20.9574 16.9 20.0563 16 18.955 16Z" fill="white"/>
</svg>
