<svg width="14" height="14" viewBox="0 0 14 14" fill="none" xmlns="http://www.w3.org/2000/svg">
<path fill-rule="evenodd" clip-rule="evenodd" d="M7.30323 0.598278L8.16573 1.58327L9.45573 1.03577C9.66448 0.947641 9.90573 1.06139 9.97198 1.27701L10.3657 2.54639L11.7651 2.57139C11.9914 2.57514 12.1682 2.77576 12.1401 3.00077L11.9845 4.32201L13.2532 4.91389C13.4451 5.00389 13.5282 5.23264 13.4382 5.42451C13.2651 5.78264 12.952 6.24451 12.7401 6.60014L13.6589 7.65827C13.807 7.82952 13.7739 8.09453 13.5895 8.22453L12.5038 8.99141L12.9126 10.3308C12.9789 10.5495 12.8414 10.7751 12.6189 10.8189L11.317 11.0783L11.1464 12.4677C11.117 12.7058 10.8789 12.8595 10.6514 12.7895L9.38198 12.5014L8.66073 13.7008C8.54385 13.8958 8.2826 13.9477 8.10073 13.8114L7.03447 13.0158L5.88759 13.8183C5.69946 13.9495 5.44385 13.8883 5.33196 13.6901L4.68321 12.5314L3.30695 12.7989C3.07321 12.8433 2.8582 12.6683 2.85007 12.4326L2.73132 11.1326L1.36758 10.8176C1.14446 10.7664 1.01695 10.5345 1.08883 10.3189L1.51633 9.06013L0.398201 8.21701C0.205705 8.07139 0.193209 7.78826 0.369451 7.62639L1.2507 6.67327L0.571947 5.44828C0.460697 5.24827 0.548196 4.99765 0.757579 4.90765L1.97696 4.38391L1.85571 2.98827C1.83508 2.74765 2.0407 2.54827 2.2782 2.57139L3.57321 2.5889L4.02947 1.26453C4.10697 1.03954 4.36572 0.939535 4.57446 1.0489L5.76196 1.59702L6.71697 0.573903C6.87884 0.400159 7.1551 0.413903 7.30134 0.598278H7.30323ZM3.84755 7.31572C3.33693 6.80509 4.11318 6.02821 4.62443 6.53884L6.34443 8.25884L9.35627 4.92012C9.83814 4.38449 10.6532 5.11825 10.1713 5.65386L6.79 9.40138C6.58501 9.65325 6.20626 9.67388 5.97563 9.44326L3.84683 7.3151L3.84755 7.31572Z" fill="#7A5CE6"/>
</svg>
